<mxfile host="Electron" agent="Mozilla/5.0 (Windows NT 10.0; Win64; x64) AppleWebKit/537.36 (KHTML, like Gecko) draw.io/26.2.15 Chrome/134.0.6998.205 Electron/35.2.1 Safari/537.36" version="26.2.15">
  <diagram name="Page-1" id="vcUqdckOmumritUhK3-z">
    <mxGraphModel dx="1426" dy="841" grid="1" gridSize="10" guides="1" tooltips="1" connect="1" arrows="1" fold="1" page="1" pageScale="1" pageWidth="850" pageHeight="1100" math="0" shadow="0">
      <root>
        <mxCell id="0" />
        <mxCell id="1" parent="0" />
        <mxCell id="YZriLaakEzwuXK0S5XRe-7" style="edgeStyle=orthogonalEdgeStyle;rounded=0;orthogonalLoop=1;jettySize=auto;html=1;exitX=0.5;exitY=0.5;exitDx=0;exitDy=0;exitPerimeter=0;entryX=0;entryY=0.5;entryDx=0;entryDy=0;" edge="1" parent="1" source="YZriLaakEzwuXK0S5XRe-3" target="YZriLaakEzwuXK0S5XRe-4">
          <mxGeometry relative="1" as="geometry" />
        </mxCell>
        <mxCell id="YZriLaakEzwuXK0S5XRe-10" value="CRUD" style="edgeLabel;html=1;align=center;verticalAlign=middle;resizable=0;points=[];" vertex="1" connectable="0" parent="YZriLaakEzwuXK0S5XRe-7">
          <mxGeometry x="-0.1733" y="-3" relative="1" as="geometry">
            <mxPoint as="offset" />
          </mxGeometry>
        </mxCell>
        <mxCell id="YZriLaakEzwuXK0S5XRe-3" value="USER" style="shape=umlActor;verticalLabelPosition=bottom;verticalAlign=top;html=1;outlineConnect=0;" vertex="1" parent="1">
          <mxGeometry x="130" y="100" width="30" height="60" as="geometry" />
        </mxCell>
        <mxCell id="YZriLaakEzwuXK0S5XRe-8" style="edgeStyle=orthogonalEdgeStyle;rounded=0;orthogonalLoop=1;jettySize=auto;html=1;exitX=1;exitY=0.5;exitDx=0;exitDy=0;entryX=0;entryY=0.5;entryDx=0;entryDy=0;" edge="1" parent="1" source="YZriLaakEzwuXK0S5XRe-4" target="YZriLaakEzwuXK0S5XRe-5">
          <mxGeometry relative="1" as="geometry" />
        </mxCell>
        <mxCell id="YZriLaakEzwuXK0S5XRe-11" value="CRUD" style="edgeLabel;html=1;align=center;verticalAlign=middle;resizable=0;points=[];" vertex="1" connectable="0" parent="YZriLaakEzwuXK0S5XRe-8">
          <mxGeometry x="-0.24" y="2" relative="1" as="geometry">
            <mxPoint as="offset" />
          </mxGeometry>
        </mxCell>
        <mxCell id="YZriLaakEzwuXK0S5XRe-4" value="WEB CLIENT" style="rounded=0;whiteSpace=wrap;html=1;" vertex="1" parent="1">
          <mxGeometry x="220" y="100" width="120" height="60" as="geometry" />
        </mxCell>
        <mxCell id="YZriLaakEzwuXK0S5XRe-17" style="edgeStyle=orthogonalEdgeStyle;rounded=0;orthogonalLoop=1;jettySize=auto;html=1;exitX=0.5;exitY=1;exitDx=0;exitDy=0;entryX=0;entryY=0.5;entryDx=0;entryDy=0;" edge="1" parent="1" source="YZriLaakEzwuXK0S5XRe-5" target="YZriLaakEzwuXK0S5XRe-16">
          <mxGeometry relative="1" as="geometry" />
        </mxCell>
        <mxCell id="YZriLaakEzwuXK0S5XRe-5" value="API SERVER" style="rounded=0;whiteSpace=wrap;html=1;" vertex="1" parent="1">
          <mxGeometry x="415" y="100" width="120" height="60" as="geometry" />
        </mxCell>
        <mxCell id="YZriLaakEzwuXK0S5XRe-6" value="DB" style="shape=cylinder3;whiteSpace=wrap;html=1;boundedLbl=1;backgroundOutline=1;size=15;" vertex="1" parent="1">
          <mxGeometry x="620" y="90" width="60" height="80" as="geometry" />
        </mxCell>
        <mxCell id="YZriLaakEzwuXK0S5XRe-9" style="edgeStyle=orthogonalEdgeStyle;rounded=0;orthogonalLoop=1;jettySize=auto;html=1;exitX=1;exitY=0.5;exitDx=0;exitDy=0;entryX=0;entryY=0.5;entryDx=0;entryDy=0;entryPerimeter=0;" edge="1" parent="1" source="YZriLaakEzwuXK0S5XRe-5" target="YZriLaakEzwuXK0S5XRe-6">
          <mxGeometry relative="1" as="geometry" />
        </mxCell>
        <mxCell id="YZriLaakEzwuXK0S5XRe-12" value="CRUD" style="edgeLabel;html=1;align=center;verticalAlign=middle;resizable=0;points=[];" vertex="1" connectable="0" parent="YZriLaakEzwuXK0S5XRe-9">
          <mxGeometry x="0.0545" y="-2" relative="1" as="geometry">
            <mxPoint as="offset" />
          </mxGeometry>
        </mxCell>
        <mxCell id="YZriLaakEzwuXK0S5XRe-16" value="PROCESSING" style="rounded=0;whiteSpace=wrap;html=1;" vertex="1" parent="1">
          <mxGeometry x="500" y="210" width="120" height="60" as="geometry" />
        </mxCell>
        <mxCell id="YZriLaakEzwuXK0S5XRe-18" style="edgeStyle=orthogonalEdgeStyle;rounded=0;orthogonalLoop=1;jettySize=auto;html=1;exitX=1;exitY=0.5;exitDx=0;exitDy=0;entryX=0.5;entryY=1;entryDx=0;entryDy=0;entryPerimeter=0;" edge="1" parent="1" source="YZriLaakEzwuXK0S5XRe-16" target="YZriLaakEzwuXK0S5XRe-6">
          <mxGeometry relative="1" as="geometry" />
        </mxCell>
      </root>
    </mxGraphModel>
  </diagram>
</mxfile>
